<?xml version="1.0" standalone="no"?>
<!DOCTYPE svg PUBLIC "-//W3C//DTD SVG 20010904//EN"
 "http://www.w3.org/TR/2001/REC-SVG-20010904/DTD/svg10.dtd">
<svg version="1.0" xmlns="http://www.w3.org/2000/svg"
 width="1024.000000pt" height="1024.000000pt" viewBox="0 0 1024.000000 1024.000000"
 preserveAspectRatio="xMidYMid meet">

<g transform="translate(0.000000,1024.000000) scale(0.100000,-0.100000)"
fill="#000000" stroke="none">
<path d="M0 5120 l0 -5120 5120 0 5120 0 0 5120 0 5120 -5120 0 -5120 0 0
-5120z m5450 2734 c220 -27 291 -53 358 -129 96 -109 69 -277 -58 -361 -55
-37 -130 -40 -325 -15 -273 36 -563 25 -771 -28 -745 -190 -1335 -741 -1607
-1501 -92 -255 -124 -457 -135 -850 -8 -281 -9 -286 -35 -336 -62 -122 -195
-168 -314 -109 -51 26 -84 60 -119 125 -17 32 -19 63 -22 318 -4 330 9 479 64
727 58 258 120 429 259 705 142 282 434 633 715 859 367 296 812 501 1271 586
197 36 469 40 719 9z m965 -675 c150 -56 254 -233 226 -385 -24 -129 -99 -232
-203 -280 -54 -24 -76 -28 -148 -28 -102 -1 -170 26 -238 93 -99 96 -139 269
-92 393 36 97 134 186 240 219 51 15 158 10 215 -12z m-1256 -245 c250 -63
473 -242 588 -471 39 -78 47 -103 51 -166 3 -45 0 -89 -8 -112 -20 -59 -74
-112 -135 -131 -105 -34 -185 15 -274 166 -106 180 -282 290 -464 290 -75 0
-193 -24 -266 -53 -34 -14 -58 -20 -54 -14 4 6 0 8 -10 4 -10 -4 -17 -1 -17 6
0 8 -4 6 -10 -3 -9 -13 -10 -13 -10 0 0 13 -1 13 -10 0 -7 -10 -10 -11 -10 -2
0 8 -13 13 -32 13 -61 0 -97 6 -113 19 -12 10 -15 10 -16 -1 0 -8 -2 -9 -5 -3
-3 7 -21 9 -44 7 -25 -3 -40 -1 -41 6 -1 6 -2 15 -3 21 0 5 -7 15 -13 22 -10
10 -13 9 -13 -2 0 -7 -3 -10 -6 -7 -4 4 -1 13 6 22 7 8 10 15 6 15 -7 0 40 86
66 120 85 112 198 191 343 239 168 56 315 61 494 15z m2116 -168 c88 -41 150
-125 266 -356 127 -254 218 -536 271 -840 21 -121 23 -165 22 -420 0 -243 -3
-305 -22 -419 -69 -420 -204 -772 -423 -1101 -202 -303 -494 -596 -789 -792
-334 -222 -720 -367 -1150 -433 -305 -47 -831 -18 -996 55 -101 44 -154 122
-154 225 0 75 24 128 77 176 73 66 131 71 348 34 50 -9 182 -18 295 -22 236
-6 401 10 585 57 426 110 756 300 1070 615 202 201 304 343 420 580 170 347
232 592 242 955 8 294 -13 468 -93 746 -47 165 -85 260 -191 474 -78 159 -87
182 -91 246 -5 83 14 131 74 184 75 65 153 77 239 36z m-2714 -422 c183 -34
334 -117 458 -250 81 -87 131 -170 178 -297 39 -101 390 -1258 434 -1425 62
-240 18 -402 -131 -486 -109 -61 -260 -32 -346 67 -42 49 -73 115 -98 210
l-18 67 -693 0 -693 0 -16 -67 c-36 -140 -100 -238 -189 -285 -32 -17 -59 -23
-117 -23 -65 0 -82 4 -128 29 -89 50 -147 142 -158 253 -8 77 26 211 191 753
30 96 76 254 104 350 170 594 188 641 286 770 133 174 349 302 573 340 83 14
276 11 363 -6z m1834 -288 c65 -30 138 -111 162 -179 17 -49 18 -106 18 -917
l0 -865 -26 -56 c-98 -209 -335 -255 -478 -92 -80 90 -76 37 -76 1033 l0 885
27 51 c33 62 104 127 161 148 66 23 153 20 212 -8z m500 -38 c0 -6 6 -13 14
-16 9 -3 11 0 5 9 -6 11 -5 12 8 2 8 -7 19 -9 23 -5 5 4 5 1 1 -6 -4 -7 -12
-9 -18 -6 -6 4 -8 2 -4 -4 3 -6 2 -14 -4 -17 -8 -5 -7 -11 1 -21 11 -13 6 -18
-14 -15 -5 1 -6 -3 -2 -9 11 -17 34 8 30 32 -3 14 0 18 11 14 9 -3 12 -1 9 4
-13 21 8 9 27 -15 11 -14 23 -23 28 -20 4 3 13 -2 20 -10 7 -8 9 -15 4 -15 -4
0 -3 -5 3 -11 12 -12 5 -52 -8 -44 -4 3 -6 14 -4 25 3 13 0 18 -7 14 -7 -5 -8
-2 -3 6 6 9 4 11 -5 5 -8 -5 -11 -4 -6 3 4 7 -1 9 -15 7 -18 -4 -19 -2 -7 12
9 12 9 15 1 9 -7 -4 -13 -2 -13 3 0 6 -4 11 -9 11 -18 0 -4 -35 20 -47 13 -7
23 -17 22 -22 -2 -5 10 -20 25 -33 19 -16 28 -32 27 -50 -1 -15 2 -25 7 -22 5
4 16 -3 24 -15 9 -12 20 -18 26 -15 6 4 8 2 4 -4 -3 -5 -3 -12 1 -15 5 -2 1
-2 -7 0 -8 3 -18 5 -22 6 -3 1 -6 -2 -6 -8 0 -5 5 -9 10 -7 6 2 19 -5 29 -14
14 -13 16 -20 8 -31 -6 -7 -8 -13 -4 -13 4 0 2 -6 -4 -13 -8 -11 -7 -18 7 -31
16 -13 19 -14 19 -1 0 8 -3 12 -7 10 -3 -2 -6 7 -6 20 0 22 9 25 12 4 1 -5 3
-11 4 -14 7 -13 5 -31 -3 -43 -7 -9 -5 -11 9 -6 10 4 16 4 12 -1 -4 -4 0 -14
10 -22 16 -14 16 -14 -2 -9 -15 5 -17 4 -8 -7 7 -8 9 -16 6 -19 -3 -3 0 -9 7
-14 7 -4 10 -3 5 4 -3 6 -2 13 3 16 5 3 7 -8 6 -24 -1 -17 1 -30 5 -30 5 0 7
-8 5 -17 -1 -10 3 -24 9 -32 9 -12 8 -13 -4 -6 -13 8 -13 7 -1 -8 7 -9 10 -17
5 -17 -5 0 -3 -4 5 -9 9 -6 11 -15 6 -27 -14 -32 -14 -43 1 -55 11 -9 12 -15
3 -26 -10 -11 -8 -12 5 -7 16 6 17 -6 12 -182 -3 -104 -6 -204 -6 -221 -1 -18
-5 -33 -10 -33 -5 0 -7 -7 -4 -15 4 -8 0 -23 -7 -32 -10 -11 -10 -14 -2 -9 9
5 11 2 7 -8 -3 -9 -11 -16 -18 -16 -6 0 -4 -5 4 -10 8 -5 10 -10 3 -10 -6 0
-10 -13 -9 -31 1 -16 -2 -33 -7 -36 -6 -4 -7 0 -2 8 5 8 4 10 0 6 -13 -11 -15
-38 -3 -31 7 5 8 2 2 -7 -4 -8 -9 -20 -10 -27 -4 -22 -13 -27 -53 -26 -51 2
-135 48 -173 96 -16 21 -40 62 -52 91 -21 51 -21 64 -23 651 -2 329 1 596 5
592 4 -4 7 -13 7 -18z m190 -156 c-2 -9 -4 -19 -4 -21 -1 -2 -7 2 -14 8 -8 6
-17 9 -20 6 -4 -3 -4 -2 -1 3 3 4 11 7 17 7 7 1 11 7 9 14 -1 7 2 10 7 7 5 -3
8 -14 6 -24z m-4 -55 c-10 -9 -11 -8 -5 6 3 10 9 15 12 12 3 -3 0 -11 -7 -18z
m-2481 -1983 c36 -8 133 -37 217 -64 83 -28 187 -55 230 -61 92 -13 237 -6
309 16 57 17 84 16 108 -4 13 -11 16 -11 16 0 0 8 6 5 15 -7 8 -10 15 -15 15
-10 0 5 7 3 15 -4 13 -11 14 -10 9 4 -3 9 -1 17 5 17 6 1 19 2 29 3 9 1 24 5
32 11 13 7 13 6 2 -7 -18 -22 10 -32 35 -12 10 9 13 13 6 10 -6 -4 -14 -2 -17
3 -4 5 2 8 11 6 10 -2 22 -4 27 -4 5 -1 3 -8 -4 -17 -11 -12 -11 -15 1 -12 8
2 13 -3 11 -10 -1 -8 2 -11 8 -7 8 5 7 11 -1 21 -14 17 2 19 20 2 7 -7 11 -8
9 -3 -1 6 5 21 15 35 15 22 17 23 18 5 0 -20 1 -20 8 0 5 11 7 23 4 27 -2 4 6
5 18 3 23 -5 39 -15 22 -15 -5 0 -8 -13 -5 -30 11 -73 -44 -187 -136 -283
-168 -175 -498 -232 -829 -143 -48 13 -133 36 -188 51 -79 21 -122 27 -205 27
-237 -1 -380 -88 -496 -304 -53 -98 -98 -139 -169 -152 -74 -14 -166 37 -205
115 -80 156 79 469 323 637 232 160 466 211 717 156z m-1632 4 c-2 -7 3 -12
11 -10 12 3 12 1 0 -14 -12 -16 -12 -17 3 -11 18 6 42 -15 30 -28 -4 -5 0 -6
9 -2 18 6 60 -32 66 -58 2 -12 7 -33 12 -53 1 -2 6 0 11 3 8 5 8 11 0 20 -8
10 -8 15 1 21 8 4 9 3 5 -4 -4 -7 -3 -12 3 -12 5 0 13 5 16 10 4 6 11 8 16 4
6 -3 5 -12 -3 -21 -15 -19 -19 -41 -8 -48 5 -3 7 3 5 14 -2 14 1 18 10 14 8
-2 13 -8 12 -11 -1 -4 1 -7 4 -7 12 0 48 -37 46 -47 -3 -13 31 -19 39 -7 3 5
9 7 14 4 5 -3 11 -1 14 3 3 5 -7 8 -22 7 -32 -2 -46 7 -73 49 -16 24 -12 22
15 -9 32 -36 42 -39 37 -11 -1 5 5 4 13 -4 9 -7 16 -9 16 -5 0 4 7 2 14 -5 11
-8 12 -18 6 -36 -5 -13 -7 -24 -5 -24 3 0 -7 -13 -21 -29 -77 -87 -227 -78
-303 18 -35 44 -71 145 -71 201 0 42 9 50 30 25 7 -8 9 -15 5 -15 -4 0 -2 -7
5 -15 13 -16 34 -10 24 7 -4 6 -1 8 7 6 8 -3 13 -10 12 -15 -1 -5 9 -9 22 -9
13 0 21 4 19 8 -12 19 15 6 30 -14 9 -13 14 -17 11 -10 -3 6 -1 12 5 12 6 0 8
5 5 10 -4 6 -10 8 -15 5 -5 -3 -12 0 -15 6 -4 5 -13 8 -21 5 -7 -3 -16 -1 -19
5 -4 5 -10 7 -15 4 -5 -3 -16 2 -24 11 -9 9 -16 11 -16 4 0 -6 -5 -8 -11 -4
-8 4 -7 9 2 15 8 5 20 2 30 -7 10 -9 19 -11 23 -6 3 6 -1 13 -9 16 -8 3 -14
11 -13 18 2 7 -3 12 -11 10 -12 -3 -12 0 -1 12 15 19 21 20 18 4z m-43 -25
c-2 -10 -4 -19 -4 -21 -1 -2 -6 0 -11 3 -8 5 -7 11 1 21 15 18 18 18 14 -3z
m22 -58 c0 -8 -4 -12 -9 -9 -5 3 -6 10 -3 15 9 13 12 11 12 -6z m2769 3 c-5
-34 -36 -47 -36 -15 0 7 4 6 10 -3 5 -8 10 -12 11 -7 1 4 3 12 4 17 1 6 3 12
4 15 2 11 9 4 7 -7z"/>
<path d="M4275 5736 c-22 -7 -54 -20 -71 -29 -39 -20 -107 -94 -132 -144 -32
-63 -215 -670 -206 -684 3 -5 221 -9 485 -9 405 0 480 2 485 14 5 13 -108 401
-172 595 -33 99 -83 172 -148 215 -80 53 -161 67 -241 42z"/>
<path d="M6919 5897 c6 -6 18 -12 27 -13 12 -2 14 0 5 9 -6 6 -18 12 -27 13
-12 2 -14 0 -5 -9z"/>
<path d="M5769 3758 c-6 -20 -6 -39 0 -42 4 -3 7 6 7 20 0 20 -4 32 -7 22z"/>
<path d="M2994 3776 c1 -8 5 -18 8 -22 4 -3 5 1 4 10 -1 8 -5 18 -8 22 -4 3
-5 -1 -4 -10z"/>
</g>
</svg>
